<svg width="20" height="20" viewBox="0 0 20 20" fill="none" xmlns="http://www.w3.org/2000/svg">
<path id="gmail" fill-rule="evenodd" clip-rule="evenodd" d="M4.84007 0.285438C8.29874 -0.0951459 11.7781 -0.0951459 15.2368 0.285438L16.7291 0.449978C17.4515 0.529366 18.131 0.906187 18.658 1.51956C19.1849 2.13293 19.5284 2.94703 19.633 3.83032C20.119 7.9221 20.119 12.0791 19.633 16.1709C19.5282 17.054 19.1846 17.8678 18.6577 18.4809C18.1308 19.094 17.4513 19.4707 16.7291 19.55L15.2368 19.7146C11.7781 20.0951 8.29874 20.0951 4.84007 19.7146L3.3478 19.55C2.62553 19.4707 1.94608 19.094 1.41917 18.4809C0.892264 17.8678 0.548667 17.054 0.443873 16.1709C-0.0421634 12.0791 -0.0421634 7.9221 0.443873 3.83032C0.548465 2.94703 0.891973 2.13293 1.4189 1.51956C1.94582 0.906187 2.62539 0.529366 3.3478 0.449978L4.84007 0.285438ZM3.99858 3.75773C3.88627 3.68319 3.76017 3.6458 3.6326 3.64921C3.50503 3.65262 3.38037 3.69672 3.2708 3.77719C3.16123 3.85766 3.0705 3.97175 3.00749 4.10831C2.94448 4.24486 2.91135 4.3992 2.91133 4.55624V16.0499C2.91133 16.2906 2.989 16.5214 3.12727 16.6915C3.26554 16.8617 3.45307 16.9573 3.64861 16.9573C3.84415 16.9573 4.03168 16.8617 4.16995 16.6915C4.30822 16.5214 4.3859 16.2906 4.3859 16.0499V6.07582L9.68846 9.58925C9.9067 9.73444 10.1702 9.73444 10.3884 9.58925L15.691 6.07582V16.0499C15.691 16.2906 15.7686 16.5214 15.9069 16.6915C16.0452 16.8617 16.2327 16.9573 16.4282 16.9573C16.6238 16.9573 16.8113 16.8617 16.9496 16.6915C17.0879 16.5214 17.1655 16.2906 17.1655 16.0499V4.55624C17.1655 4.3992 17.1324 4.24486 17.0694 4.10831C17.0064 3.97175 16.9156 3.85766 16.8061 3.77719C16.6965 3.69672 16.5718 3.65262 16.4443 3.64921C16.3167 3.6458 16.1906 3.68319 16.0783 3.75773L10.0384 7.75995L3.99858 3.75773Z" fill="white"/>
</svg>
