<svg width="21" height="20" viewBox="0 0 21 20" fill="none" xmlns="http://www.w3.org/2000/svg">
<path id="instagram" d="M6.01528 0H14.3809C17.5678 0 20.1572 2.6 20.1572 5.8V14.2C20.1572 15.7383 19.5486 17.2135 18.4654 18.3012C17.3821 19.3889 15.9129 20 14.3809 20H6.01528C2.82838 20 0.239014 17.4 0.239014 14.2V5.8C0.239014 4.26174 0.847583 2.78649 1.93084 1.69878C3.0141 0.61107 4.48332 0 6.01528 0ZM5.8161 2C4.86523 2 3.9533 2.37928 3.28093 3.05442C2.60856 3.72955 2.23083 4.64522 2.23083 5.6V14.4C2.23083 16.39 3.83424 18 5.8161 18H14.5801C15.531 18 16.4429 17.6207 17.1153 16.9456C17.7876 16.2705 18.1654 15.3548 18.1654 14.4V5.6C18.1654 3.61 16.562 2 14.5801 2H5.8161ZM15.4266 3.5C15.7568 3.5 16.0734 3.6317 16.3069 3.86612C16.5403 4.10054 16.6715 4.41848 16.6715 4.75C16.6715 5.08152 16.5403 5.39946 16.3069 5.63388C16.0734 5.8683 15.7568 6 15.4266 6C15.0965 6 14.7798 5.8683 14.5463 5.63388C14.3129 5.39946 14.1817 5.08152 14.1817 4.75C14.1817 4.41848 14.3129 4.10054 14.5463 3.86612C14.7798 3.6317 15.0965 3.5 15.4266 3.5ZM10.1981 5C11.5188 5 12.7853 5.52678 13.7192 6.46447C14.653 7.40215 15.1776 8.67392 15.1776 10C15.1776 11.3261 14.653 12.5979 13.7192 13.5355C12.7853 14.4732 11.5188 15 10.1981 15C8.87744 15 7.61088 14.4732 6.67703 13.5355C5.74318 12.5979 5.21856 11.3261 5.21856 10C5.21856 8.67392 5.74318 7.40215 6.67703 6.46447C7.61088 5.52678 8.87744 5 10.1981 5ZM10.1981 7C9.4057 7 8.64576 7.31607 8.08546 7.87868C7.52515 8.44129 7.21037 9.20435 7.21037 10C7.21037 10.7956 7.52515 11.5587 8.08546 12.1213C8.64576 12.6839 9.4057 13 10.1981 13C10.9905 13 11.7504 12.6839 12.3107 12.1213C12.871 11.5587 13.1858 10.7956 13.1858 10C13.1858 9.20435 12.871 8.44129 12.3107 7.87868C11.7504 7.31607 10.9905 7 10.1981 7Z" fill="white"/>
</svg>
